PathFileType	4	(X/Y/Z)	C:\Users\italobelli\Desktop\GitHub\PTbot_officialCBL\Personal_Results\FLX23_noisy1.trc
DataRate	CameraRate	NumFrames	NumMarkers	Units	OrigDataRate	OrigDataStartFrame	OrigNumFrames
106.533333	106.533333	47	9	m	106.533333	301	800
Frame#	Time		gu		centelbow		EpL		centpxt8		centijc7		ij		ts		aa		ai
			X1	Y1	Z1	X2	Y2	Z2	X3	Y3	Z3	X4	Y4	Z4	X5	Y5	Z5	X6	Y6	Z6	X7	Y7	Z7	X8	Y8	Z8	X9	Y9	Z9

301	2.816	-0.097393	0.059887	0.1079	0.020835	0.24516	0.19917	-0.00338	0.2622	0.18869	-0.046816	-0.15316	-0.008669	-0.046816	0.031938	-0.008669	0	0	0	-0.14464	-0.019298	0.058213	-0.1235	0.081064	0.11742	-0.11388	-0.074666	0.1524
302	2.8254	-0.097551	0.059959	0.10765	0.018645	0.24718	0.19822	-0.0057306	0.26393	0.18759	-0.046816	-0.15316	-0.008669	-0.046816	0.031938	-0.008669	0	0	0	-0.14415	-0.019585	0.058208	-0.12384	0.081168	0.1171	-0.11323	-0.074403	0.15267
303	2.8348	-0.097705	0.06003	0.10742	0.016488	0.24914	0.19728	-0.0080453	0.26561	0.1865	-0.046816	-0.15316	-0.008669	-0.046816	0.031938	-0.008669	0	0	0	-0.14368	-0.019864	0.058202	-0.12418	0.081269	0.11678	-0.1126	-0.074142	0.15293
304	2.8442	-0.097855	0.0601	0.10719	0.014366	0.25105	0.19637	-0.010321	0.26723	0.18543	-0.046816	-0.15316	-0.008669	-0.046816	0.031938	-0.008669	0	0	0	-0.1432	-0.020136	0.058197	-0.12451	0.081368	0.11646	-0.11197	-0.073883	0.15318
305	2.8536	-0.098002	0.060169	0.10697	0.012284	0.25288	0.19547	-0.012554	0.26879	0.18438	-0.046816	-0.15316	-0.008669	-0.046816	0.031938	-0.008669	0	0	0	-0.14274	-0.0204	0.058192	-0.12484	0.081465	0.11615	-0.11136	-0.073626	0.15343
306	2.863	-0.098144	0.060236	0.10675	0.010243	0.25466	0.19459	-0.014742	0.27029	0.18335	-0.046816	-0.15316	-0.008669	-0.046816	0.031938	-0.008669	0	0	0	-0.14228	-0.020656	0.058186	-0.12517	0.081559	0.11585	-0.11077	-0.073372	0.15367
307	2.8723	-0.098282	0.060303	0.10654	0.0082481	0.25637	0.19374	-0.016881	0.27173	0.18235	-0.046816	-0.15316	-0.008669	-0.046816	0.031938	-0.008669	0	0	0	-0.14184	-0.020903	0.058181	-0.12549	0.081651	0.11556	-0.11018	-0.07312	0.1539
308	2.8817	-0.098415	0.06037	0.10634	0.0063014	0.258	0.1929	-0.018968	0.27311	0.18138	-0.046816	-0.15316	-0.008669	-0.046816	0.031938	-0.008669	0	0	0	-0.1414	-0.021142	0.058175	-0.12581	0.081741	0.11527	-0.10962	-0.07287	0.15412
309	2.8911	-0.098545	0.060435	0.10614	0.0044065	0.25957	0.1921	-0.021	0.27442	0.18044	-0.046816	-0.15316	-0.008669	-0.046816	0.031938	-0.008669	0	0	0	-0.14097	-0.021371	0.05817	-0.12612	0.081828	0.11499	-0.10907	-0.072624	0.15433
310	2.9005	-0.09867	0.060499	0.10595	0.0025664	0.26107	0.19132	-0.022973	0.27567	0.17952	-0.046816	-0.15316	-0.008669	-0.046816	0.031938	-0.008669	0	0	0	-0.14056	-0.021592	0.058164	-0.12642	0.081912	0.11471	-0.10853	-0.072381	0.15454
311	2.9099	-0.09879	0.060563	0.10577	0.00078426	0.2625	0.19056	-0.024884	0.27686	0.17864	-0.046816	-0.15316	-0.008669	-0.046816	0.031938	-0.008669	0	0	0	-0.14016	-0.021802	0.058159	-0.12672	0.081995	0.11445	-0.10802	-0.072141	0.15474
312	2.9193	-0.098906	0.060626	0.10559	-0.00093668	0.26385	0.18984	-0.026731	0.27798	0.17779	-0.046816	-0.15316	-0.008669	-0.046816	0.031938	-0.008669	0	0	0	-0.13977	-0.022002	0.058153	-0.12702	0.082075	0.11419	-0.10753	-0.071905	0.15493
313	2.9287	-0.099017	0.060688	0.10543	-0.0025933	0.26513	0.18915	-0.02851	0.27902	0.17697	-0.046816	-0.15316	-0.008669	-0.046816	0.031938	-0.008669	0	0	0	-0.1394	-0.022192	0.058148	-0.1273	0.082153	0.11394	-0.10706	-0.071673	0.1551
314	2.938	-0.099123	0.06075	0.10527	-0.0041823	0.26633	0.1885	-0.030217	0.28	0.17619	-0.046816	-0.15316	-0.008669	-0.046816	0.031938	-0.008669	0	0	0	-0.13904	-0.022371	0.058142	-0.12758	0.082228	0.1137	-0.10661	-0.071444	0.15528
315	2.9474	-0.099225	0.06081	0.10512	-0.0057007	0.26745	0.18788	-0.03185	0.28091	0.17544	-0.046816	-0.15316	-0.008669	-0.046816	0.031938	-0.008669	0	0	0	-0.1387	-0.022539	0.058137	-0.12785	0.082302	0.11347	-0.10618	-0.07122	0.15544
316	2.9568	-0.099322	0.06087	0.10497	-0.0071452	0.26849	0.18729	-0.033405	0.28175	0.17474	-0.046816	-0.15316	-0.008669	-0.046816	0.031938	-0.008669	0	0	0	-0.13837	-0.022696	0.058131	-0.12811	0.082373	0.11324	-0.10578	-0.071	0.15559
317	2.9662	-0.099413	0.06093	0.10484	-0.0085128	0.26945	0.18675	-0.034879	0.28251	0.17407	-0.046816	-0.15316	-0.008669	-0.046816	0.031938	-0.008669	0	0	0	-0.13807	-0.022841	0.058126	-0.12836	0.082441	0.11303	-0.10541	-0.070785	0.15574
318	2.9756	-0.0995	0.060989	0.10471	-0.0098001	0.27032	0.18624	-0.036269	0.2832	0.17345	-0.046816	-0.15316	-0.008669	-0.046816	0.031938	-0.008669	0	0	0	-0.13778	-0.022974	0.058121	-0.12861	0.082508	0.11282	-0.10506	-0.070574	0.15587
319	2.985	-0.099582	0.061047	0.10459	-0.011004	0.27111	0.18577	-0.037571	0.28382	0.17287	-0.046816	-0.15316	-0.008669	-0.046816	0.031938	-0.008669	0	0	0	-0.13751	-0.023095	0.058115	-0.12884	0.082572	0.11262	-0.10474	-0.070368	0.156
320	2.9944	-0.099659	0.061105	0.10448	-0.012121	0.27182	0.18535	-0.038783	0.28435	0.17234	-0.046816	-0.15316	-0.008669	-0.046816	0.031938	-0.008669	0	0	0	-0.13727	-0.023203	0.05811	-0.12907	0.082635	0.11244	-0.10445	-0.070168	0.15611
321	3.0038	-0.09973	0.061163	0.10438	-0.013155	0.27244	0.18497	-0.039906	0.28482	0.17185	-0.046816	-0.15316	-0.008669	-0.046816	0.031938	-0.008669	0	0	0	-0.13704	-0.023299	0.058105	-0.12929	0.082695	0.11226	-0.10419	-0.069972	0.15622
322	3.0131	-0.099801	0.061221	0.10428	-0.014157	0.27305	0.18461	-0.040993	0.28527	0.17138	-0.046816	-0.15316	-0.008669	-0.046816	0.031938	-0.008669	0	0	0	-0.13682	-0.023389	0.0581	-0.1295	0.082754	0.11208	-0.10393	-0.069775	0.15633
323	3.0225	-0.099872	0.061279	0.10418	-0.015141	0.27365	0.18426	-0.042055	0.28572	0.17093	-0.046816	-0.15316	-0.008669	-0.046816	0.031938	-0.008669	0	0	0	-0.13659	-0.023474	0.058095	-0.12972	0.082814	0.11191	-0.10368	-0.069577	0.15644
324	3.0319	-0.099943	0.061337	0.10408	-0.016106	0.27424	0.18392	-0.043092	0.28616	0.17049	-0.046816	-0.15316	-0.008669	-0.046816	0.031938	-0.008669	0	0	0	-0.13637	-0.023554	0.058089	-0.12993	0.082873	0.11174	-0.10344	-0.069376	0.15654
325	3.0413	-0.10001	0.061395	0.10398	-0.017051	0.27483	0.18359	-0.044104	0.2866	0.17007	-0.046816	-0.15316	-0.008669	-0.046816	0.031938	-0.008669	0	0	0	-0.13614	-0.02363	0.058084	-0.13015	0.082931	0.11156	-0.1032	-0.069174	0.15665
326	3.0507	-0.10008	0.061453	0.10389	-0.017975	0.27541	0.18328	-0.04509	0.28704	0.16966	-0.046816	-0.15316	-0.008669	-0.046816	0.031938	-0.008669	0	0	0	-0.13592	-0.023702	0.058079	-0.13037	0.082989	0.11139	-0.10296	-0.068971	0.15675
327	3.0601	-0.10015	0.061512	0.10379	-0.018879	0.27598	0.18298	-0.046049	0.28748	0.16927	-0.046816	-0.15316	-0.008669	-0.046816	0.031938	-0.008669	0	0	0	-0.13569	-0.023769	0.058074	-0.13058	0.083047	0.11122	-0.10272	-0.068767	0.15686
328	3.0695	-0.10022	0.061571	0.1037	-0.019761	0.27655	0.18268	-0.046982	0.28791	0.16889	-0.046816	-0.15316	-0.008669	-0.046816	0.031938	-0.008669	0	0	0	-0.13547	-0.023831	0.058069	-0.1308	0.083105	0.11105	-0.10249	-0.068562	0.15696
329	3.0788	-0.10029	0.06163	0.1036	-0.020621	0.27711	0.1824	-0.047888	0.28833	0.16853	-0.046816	-0.15316	-0.008669	-0.046816	0.031938	-0.008669	0	0	0	-0.13525	-0.023889	0.058064	-0.13102	0.083162	0.11089	-0.10227	-0.068357	0.15707
330	3.0882	-0.10036	0.061688	0.10351	-0.021458	0.27766	0.18214	-0.048766	0.28875	0.16819	-0.046816	-0.15316	-0.008669	-0.046816	0.031938	-0.008669	0	0	0	-0.13502	-0.023943	0.058058	-0.13123	0.083219	0.11072	-0.10205	-0.068151	0.15717
331	3.0976	-0.10043	0.061747	0.10342	-0.022272	0.2782	0.18188	-0.049617	0.28917	0.16786	-0.046816	-0.15316	-0.008669	-0.046816	0.031938	-0.008669	0	0	0	-0.1348	-0.023992	0.058053	-0.13145	0.083276	0.11056	-0.10183	-0.067945	0.15728
332	3.107	-0.1005	0.061806	0.10332	-0.023062	0.27874	0.18164	-0.050439	0.28958	0.16754	-0.046816	-0.15316	-0.008669	-0.046816	0.031938	-0.008669	0	0	0	-0.13458	-0.024037	0.058048	-0.13166	0.083333	0.1104	-0.10162	-0.06774	0.15738
333	3.1164	-0.10056	0.061866	0.10324	-0.023827	0.27926	0.18141	-0.051232	0.28998	0.16724	-0.046816	-0.15316	-0.008669	-0.046816	0.031938	-0.008669	0	0	0	-0.13437	-0.024078	0.058043	-0.13187	0.083389	0.11024	-0.10141	-0.067534	0.15748
334	3.1258	-0.10063	0.061925	0.10315	-0.024568	0.27978	0.18118	-0.051996	0.29038	0.16695	-0.046816	-0.15316	-0.008669	-0.046816	0.031938	-0.008669	0	0	0	-0.13415	-0.024114	0.058038	-0.13208	0.083445	0.11009	-0.10121	-0.067329	0.15758
335	3.1352	-0.10069	0.061984	0.10306	-0.025283	0.28029	0.18098	-0.052731	0.29077	0.16668	-0.046816	-0.15316	-0.008669	-0.046816	0.031938	-0.008669	0	0	0	-0.13394	-0.024147	0.058033	-0.13228	0.083501	0.10993	-0.10102	-0.067125	0.15768
336	3.1446	-0.10076	0.062043	0.10298	-0.025971	0.28078	0.18078	-0.053435	0.29116	0.16643	-0.046816	-0.15316	-0.008669	-0.046816	0.031938	-0.008669	0	0	0	-0.13373	-0.024175	0.058027	-0.13249	0.083556	0.10978	-0.10083	-0.066923	0.15777
337	3.1539	-0.10082	0.062102	0.10289	-0.026633	0.28127	0.1806	-0.054109	0.29154	0.16618	-0.046816	-0.15316	-0.008669	-0.046816	0.031938	-0.008669	0	0	0	-0.13352	-0.024199	0.058022	-0.13269	0.083611	0.10964	-0.10065	-0.066721	0.15787
338	3.1633	-0.10088	0.062161	0.10281	-0.027267	0.28175	0.18042	-0.054753	0.29191	0.16596	-0.046816	-0.15316	-0.008669	-0.046816	0.031938	-0.008669	0	0	0	-0.13332	-0.024219	0.058017	-0.13289	0.083666	0.10949	-0.10047	-0.066521	0.15796
339	3.1727	-0.10094	0.06222	0.10273	-0.027873	0.28221	0.18026	-0.055364	0.29227	0.16575	-0.046816	-0.15316	-0.008669	-0.046816	0.031938	-0.008669	0	0	0	-0.13312	-0.024235	0.058012	-0.13308	0.083721	0.10935	-0.1003	-0.066323	0.15806
340	3.1821	-0.101	0.062278	0.10266	-0.02845	0.28266	0.18012	-0.055945	0.29263	0.16555	-0.046816	-0.15316	-0.008669	-0.046816	0.031938	-0.008669	0	0	0	-0.13292	-0.024247	0.058007	-0.13328	0.083776	0.10922	-0.10014	-0.066126	0.15815
341	3.1915	-0.10105	0.062337	0.10258	-0.028999	0.28311	0.17998	-0.056493	0.29297	0.16537	-0.046816	-0.15316	-0.008669	-0.046816	0.031938	-0.008669	0	0	0	-0.13273	-0.024256	0.058001	-0.13346	0.08383	0.10908	-0.09998	-0.065932	0.15824
342	3.2009	-0.10111	0.062396	0.10251	-0.029517	0.28353	0.17985	-0.057009	0.29331	0.1652	-0.046816	-0.15316	-0.008669	-0.046816	0.031938	-0.008669	0	0	0	-0.13254	-0.02426	0.057996	-0.13365	0.083885	0.10895	-0.09983	-0.065741	0.15832
343	3.2103	-0.10116	0.062454	0.10244	-0.030005	0.28395	0.17974	-0.057491	0.29364	0.16505	-0.046816	-0.15316	-0.008669	-0.046816	0.031938	-0.008669	0	0	0	-0.13236	-0.02426	0.057991	-0.13383	0.083939	0.10883	-0.099687	-0.065552	0.15841
344	3.2196	-0.10121	0.062512	0.10237	-0.030462	0.28435	0.17964	-0.057941	0.29396	0.16491	-0.046816	-0.15316	-0.008669	-0.046816	0.031938	-0.008669	0	0	0	-0.13218	-0.024257	0.057986	-0.13401	0.083992	0.10871	-0.09955	-0.065366	0.15849
345	3.229	-0.10126	0.06257	0.10231	-0.030888	0.28474	0.17955	-0.058356	0.29427	0.16478	-0.046816	-0.15316	-0.008669	-0.046816	0.031938	-0.008669	0	0	0	-0.13201	-0.02425	0.057981	-0.13418	0.084046	0.10859	-0.099422	-0.065183	0.15857
346	3.2384	-0.10131	0.062628	0.10224	-0.031281	0.28512	0.17948	-0.058738	0.29457	0.16467	-0.046816	-0.15316	-0.008669	-0.046816	0.031938	-0.008669	0	0	0	-0.13185	-0.024239	0.057975	-0.13435	0.0841	0.10848	-0.0993	-0.065004	0.15865
347	3.2478	-0.10135	0.062685	0.10218	-0.031642	0.28548	0.17941	-0.059084	0.29487	0.16458	-0.046816	-0.15316	-0.008669	-0.046816	0.031938	-0.008669	0	0	0	-0.13169	-0.024225	0.05797	-0.13451	0.084153	0.10837	-0.099186	-0.064828	0.15873
